<svg fill="none" height="24" viewBox="0 0 24 24" width="24" xmlns="http://www.w3.org/2000/svg"><path d="m21 12c0 4.9706-4.0294 9-9 9-4.97056 0-9-4.0294-9-9 0-4.97056 4.02944-9 9-9 4.9706 0 9 4.02944 9 9z" fill="#000" fill-opacity=".1"/><path d="m20.9556 12.8926c-.1172 1.1761-.4649 2.3175-1.0233 3.3592-.5583 1.0417-1.3164 1.9632-2.2309 2.712-.9145.7487-1.9675 1.3099-3.0989 1.6517s-2.319.4573-3.4951.3401c-1.17607-.1172-2.31754-.4649-3.35923-1.0233-1.04169-.5583-1.9632-1.3164-2.71192-2.2309s-1.30999-1.9675-1.65176-3.0989c-.34176-1.1314-.45734-2.319-.34012-3.4951.11722-1.17607.46494-2.31754 1.02329-3.35923.55836-1.04169 1.31643-1.9632 2.23092-2.71192s1.9675-1.30999 3.09891-1.65176c1.13141-.34176 2.31901-.45734 3.49511-.34012s2.3175.46494 3.3592 1.02329c1.0417.55836 1.9632 1.31643 2.712 2.23092.7487.91449 1.3099 1.9675 1.6517 3.09891s.4573 2.31901.3401 3.49511z" stroke="#000" stroke-linecap="round" stroke-linejoin="round"/></svg>