<svg height="48" width="48" xmlns="http://www.w3.org/2000/svg" xmlns:xlink="http://www.w3.org/1999/xlink"><linearGradient id="a" gradientTransform="matrix(0 -1 1 0 12 36)" gradientUnits="userSpaceOnUse" x1="32" x2="-8" y1="-6" y2="32"><stop offset="0" stop-color="#d8dcde"/><stop offset="1" stop-color="#f9fafb"/></linearGradient><linearGradient id="b" gradientTransform="translate(1)" gradientUnits="userSpaceOnUse" x2="0" y1="8" y2="4"><stop offset="0" stop-color="#2f3943"/><stop offset="1" stop-color="#4d5662"/></linearGradient><linearGradient id="c" gradientTransform="translate(-22)" gradientUnits="userSpaceOnUse" x2="-.559322" xlink:href="#b" y1="8" y2="7.915254"/><linearGradient id="d" gradientUnits="userSpaceOnUse" x1="8" x2="19" y1="8" y2="19"><stop offset="0"/><stop offset="1" stop-opacity="0"/></linearGradient><linearGradient id="e" gradientTransform="matrix(0 1 1 0 0 0)" gradientUnits="userSpaceOnUse" x1="8" x2="19" xlink:href="#d" y1="8" y2="19"/><linearGradient id="f" gradientTransform="matrix(-.00282 .99376 .65925 -.00423 4.893 .177)" gradientUnits="userSpaceOnUse" x1="29.059999" x2="29.01" y1="13.634" y2="1.499"><stop offset="0" stop-color="#f67400"/><stop offset="1" stop-color="#fdbc4b"/></linearGradient><linearGradient id="g" gradientTransform="translate(-47)" gradientUnits="userSpaceOnUse" x2="0" xlink:href="#b" y1="8" y2="4"/><linearGradient id="h" gradientTransform="matrix(0 1 1 0 0 25)" gradientUnits="userSpaceOnUse" x1="8" x2="19" xlink:href="#d" y1="8" y2="19"/><g stroke-linejoin="bevel" stroke-width="2"><path d="m13 44h31v-40h-31z" fill="url(#a)"/><path d="m6 44v-40h8v40z" fill="url(#f)"/><path d="m-44 13h40v1h-40z" fill="#dd7107" stroke-linecap="round" transform="rotate(-90)"/><path d="m7 7v9h1v-9zm0 25v9h1v-9z" fill="#f7800c" stroke-linecap="round"/><path d="m-40 4h7v4h-7z" fill="url(#g)" stroke-linecap="round" transform="rotate(-90)"/><path d="m-15 4h7v4h-7z" fill="url(#c)" stroke-linecap="round" transform="rotate(-90)"/></g><path d="m8 33 6 6v5h-2l-4-4z" fill="url(#h)" fill-rule="evenodd" opacity=".2"/><path d="m8 8 6 6v7l-6-6z" fill="url(#e)" fill-rule="evenodd" opacity=".2"/><path d="m18 8v6h6v-6zm1 1h4v4h-4z" fill="#dd7107"/><path d="m18 34v6h6v-6zm1 1h4v4h-4z" fill="#da4453"/><path d="m18 21v6h6v-6zm1 1h4v4h-4z" fill="#27ae60"/><path d="m40.636719 32.439453-7.636719 7.560547-2.910156-2.880859-.726563.720703 2.908204 2.878906.728515.720703 1.089844-1.080078 7.273437-7.199218z" fill="#4d4d4d" fill-opacity=".866667"/></svg>